{
  "accessors": [
    {
      "bufferView": 2,
      "componentType": 5126,
      "count": 573,
      "max": [
        0.86357998847961426,
        0.31510999798774719,
        0.98900997638702393
      ],
      "min": [
        -0.86357998847961426,
        -0.33129000663757324,
        -0.98057997226715088
      ],
      "type": "VEC3"
    },
    {
      "bufferView": 2,
      "byteOffset": 6876,
      "componentType": 5126,
      "count": 573,
      "max": [
        0.99691760540008545,
        0.99643617868423462,
        0.99817252159118652
      ],
      "min": [
        -0.99691760540008545,
        -0.99862140417098999,
        -0.99996274709701538
      ],
      "type": "VEC3"
    },
    {
      "bufferView": 1,
      "componentType": 5126,
      "count": 573,
      "max": [
        0.96362000703811646,
        0.99971997737884521
      ],
      "min": [
        0.00028000000747852027,
        0.00028000000747852027
      ],
      "type": "VEC2"
    },
    {
      "bufferView": 1,
      "byteOffset": 4584,
      "componentType": 5126,
      "count": 573,
      "max": [
        0.96362000703811646,
        0.99971997737884521
      ],
      "min": [
        0.00028000000747852027,
        0.00028000000747852027
      ],
      "type": "VEC2"
    },
    {
      "bufferView": 1,
      "byteOffset": 9168,
      "componentType": 5126,
      "count": 573,
      "max": [
        0.96362000703811646,
        0.99971997737884521
      ],
      "min": [
        0.00028000000747852027,
        0.00028000000747852027
      ],
      "type": "VEC2"
    },
    {
      "bufferView": 1,
      "byteOffset": 13752,
      "componentType": 5126,
      "count": 573,
      "max": [
        0.96362000703811646,
        0.99971997737884521
      ],
      "min": [
        0.00028000000747852027,
        0.00028000000747852027
      ],
      "type": "VEC2"
    },
    {
      "bufferView": 0,
      "componentType": 5125,
      "count": 2364,
      "max": [
        572
      ],
      "min": [
        0
      ],
      "type": "SCALAR"
    }
  ],
  "asset": {
    "extras": {
      "author": "GGklin (https://sketchfab.com/GGklin)",
      "license": "CC-BY-4.0 (http://creativecommons.org/licenses/by/4.0/)",
      "source": "https://sketchfab.com/3d-models/patrick-star-228fe0c126724a2db6937b7834c4f4e9",
      "title": "Patrick Star"
    },
    "generator": "Sketchfab-8.55.0",
    "version": "2.0"
  },
  "bufferViews": [
    {
      "buffer": 0,
      "byteLength": 9456,
      "byteOffset": 0,
      "name": "floatBufferViews",
      "target": 34963
    },
    {
      "buffer": 0,
      "byteLength": 18336,
      "byteOffset": 9456,
      "byteStride": 8,
      "name": "floatBufferViews",
      "target": 34962
    },
    {
      "buffer": 0,
      "byteLength": 13752,
      "byteOffset": 27792,
      "byteStride": 12,
      "name": "floatBufferViews",
      "target": 34962
    }
  ],
  "buffers": [
    {
      "byteLength": 41544,
      "uri": "scene.bin"
    }
  ],
  "extensionsUsed": [
    "KHR_materials_unlit"
  ],
  "images": [
    {
      "uri": "textures/Material_baseColor.png"
    }
  ],
  "materials": [
    {
      "doubleSided": true,
      "extensions": {
        "KHR_materials_unlit": {}
      },
      "name": "Material",
      "pbrMetallicRoughness": {
        "baseColorFactor": [
          1,
          1,
          1,
          1
        ],
        "baseColorTexture": {
          "index": 0,
          "texCoord": 0
        },
        "metallicFactor": 0,
        "roughnessFactor": 1
      }
    }
  ],
  "meshes": [
    {
      "name": "Cube_0",
      "primitives": [
        {
          "attributes": {
            "NORMAL": 1,
            "POSITION": 0,
            "TEXCOORD_0": 2,
            "TEXCOORD_1": 3,
            "TEXCOORD_2": 4,
            "TEXCOORD_3": 5
          },
          "indices": 6,
          "material": 0,
          "mode": 4
        }
      ]
    }
  ],
  "nodes": [
    {
      "children": [
        1
      ],
      "name": "RootNode (gltf orientation matrix)",
      "rotation": [
        -0.70710678118654746,
        -0,
        -0,
        0.70710678118654757
      ]
    },
    {
      "children": [
        2
      ],
      "name": "RootNode (model correction matrix)"
    },
    {
      "children": [
        3
      ],
      "name": "Root"
    },
    {
      "children": [
        4
      ],
      "name": "Cube"
    },
    {
      "mesh": 0,
      "name": "Cube_0"
    }
  ],
  "samplers": [
    {
      "magFilter": 9729,
      "minFilter": 9987,
      "wrapS": 10497,
      "wrapT": 10497
    }
  ],
  "scene": 0,
  "scenes": [
    {
      "name": "OSG_Scene",
      "nodes": [
        0
      ]
    }
  ],
  "textures": [
    {
      "sampler": 0,
      "source": 0
    }
  ]
}

